<svg width="60" height="48" viewBox="0 0 60 48" fill="none" xmlns="http://www.w3.org/2000/svg">
<path fill-rule="evenodd" clip-rule="evenodd" d="M38.02 0.511943H33.412L37.768 12.1399L34.6 20.2759L27.328 0.439941H22L31.6958 24.7651L25.308 42.2759L22.068 34.1399L26.46 22.5119H21.888L18.936 30.9719L16.02 22.5119H11.412L15.768 34.1399L12.6 42.2759L5.328 22.4399H0L10.188 47.9999H14.472L18.936 37.2719L23.436 47.9999H27.72L37.712 23.02L40.936 15.2719L45.436 25.9999H49.72L59.944 0.439941H54.544L47.308 20.2759L44.068 12.1399L48.46 0.511943H43.888L40.936 8.97194L38.02 0.511943Z" fill="white"/>
</svg>
